<?xml version="1.0" encoding="UTF-8"?>
<svg id="Layer_2" xmlns="http://www.w3.org/2000/svg" viewBox="0 0 2825.3 2782">
  <defs>
    <style>
      .cls-1 {
        fill: none;
        stroke: #1a1a1a;
        stroke-miterlimit: 10;
        stroke-width: 60px;
      }

      .cls-2 {
        fill: #fff;
      }

      .cls-3 {
        fill: #c1272d;
      }

      .cls-4 {
        fill: #1a1a1a;
      }
    </style>
  </defs>
  <g id="Layer_1-2" data-name="Layer_1">
    <g>
      <path class="cls-3" d="M2726.39,1855.42l-813.13-1240.86c-47.26-72.12-106.21-129.8-172.18-173.07,24.57-24.61,48.44-56.49,69.25-94.13,65.28-118.11,75.68-248.13,23.21-290.41-52.47-42.28-147.92,19.19-213.2,137.31-31.74,57.43-50.5,117.66-55.38,169.27-3.91-1.02-7.83-1.99-11.76-2.93,7.84-35.47,11.69-75.73,10.42-118.2C1559.5,104.98,1503.41-3.5,1438.33.09c-65.08,3.59-114.5,117.88-110.38,255.29.99,33.12,5.01,64.55,11.44,93.15-165.71,20.12-324.32,108.79-427.36,266.04L98.9,1855.42c-260.84,398.05,24.72,926.58,500.62,926.58h1626.25c475.9,0,761.46-528.53,500.62-926.58Z"/>
      <g>
        <g>
          <circle class="cls-2" cx="1216" cy="846.19" r="112.81"/>
          <circle class="cls-4" cx="1216" cy="846.19" r="85.4"/>
          <ellipse class="cls-2" cx="1180.13" cy="819.53" rx="48.28" ry="42.3" transform="translate(116.07 1784.98) rotate(-77)"/>
        </g>
        <g>
          <circle class="cls-2" cx="1570.99" cy="845.97" r="112.81"/>
          <circle class="cls-4" cx="1570.99" cy="845.97" r="85.4"/>
          <ellipse class="cls-2" cx="1535.12" cy="819.31" rx="48.28" ry="42.3" transform="translate(391.39 2130.71) rotate(-77)"/>
        </g>
        <path class="cls-1" d="M1358.26,785.99c-63.91-27.62-130.04-66.83-207.62-104.99"/>
        <path class="cls-1" d="M1643.85,691.89c-63.33,28.93-136.75,51.75-217.06,83.76"/>
      </g>
      <path class="cls-1" d="M1206.46,1127.09c124.67-85.71,249.33-85.71,374,0"/>
    </g>
  </g>
</svg>