<?xml version="1.0" encoding="UTF-8"?>
<svg id="Layer_2" xmlns="http://www.w3.org/2000/svg" viewBox="0 0 2002.32 2718.62">
  <defs>
    <style>
      .cls-1 {
        fill: none;
        stroke: #1a1a1a;
        stroke-miterlimit: 10;
        stroke-width: 60px;
      }

      .cls-2 {
        fill: #fff;
      }

      .cls-3 {
        fill: #1a1a1a;
      }

      .cls-4 {
        fill: #f9d523;
      }
    </style>
  </defs>
  <g id="Layer_1-2" data-name="Layer_1">
    <g>
      <path class="cls-4" d="M2002.32,1496.72c0-526.77-336.32-967.13-785.67-1075.54,25.29-42.16,42.42-105.81,44.58-177.8,3.92-130.95-43.17-239.87-105.19-243.29-62.02-3.42-115.48,99.96-119.4,230.91-1.92,64.12,8.4,122.95,26.7,166.71-9.37-.63-18.78-1.11-28.22-1.46,6.94-56.93-11.31-136.51-52.55-211.12-62.22-112.56-153.18-171.14-203.18-130.85-50,40.29-40.1,164.2,22.12,276.76,16.23,29.36,34.42,55.05,53.33,76.27C371.27,485.19,0,943.26,0,1496.72c0,162.22,31.9,316.25,89.17,454.91-211.23,315,8.13,767,414.12,767h995.07c405.73,0,625.07-451.41,414.53-766.38,57.43-138.82,89.43-293.06,89.43-455.52Z"/>
      <g>
        <circle class="cls-2" cx="839.64" cy="764.16" r="128.79"/>
        <circle class="cls-3" cx="839.64" cy="764.16" r="97.5"/>
        <ellipse class="cls-2" cx="798.69" cy="733.73" rx="55.11" ry="48.3" transform="translate(-95.94 1346.83) rotate(-77)"/>
      </g>
      <g>
        <circle class="cls-2" cx="1145.73" cy="764.16" r="128.79"/>
        <circle class="cls-3" cx="1145.73" cy="764.16" r="97.5"/>
        <ellipse class="cls-2" cx="1104.78" cy="733.73" rx="55.11" ry="48.3" transform="translate(141.28 1645.08) rotate(-77)"/>
      </g>
      <path class="cls-1" d="M701.86,602.08c88.54-60.87,177.07-60.87,265.61,0"/>
      <path class="cls-1" d="M1048.43,602.08c88.54-60.87,177.07-60.87,265.61,0"/>
      <path d="M818.87,950.72c-.37,0-.73,0-1.09.01-38,.77-51.77,40.64-35.48,74.98,91.95,193.89,313.65,234.48,420.58-.6,15.06-33.12,3.14-71.2-33.12-74.2-1.46-.12-2.94-.18-4.44-.18h-346.45Z"/>
      <path class="cls-2" d="M914.7,950.72h77.41v38.71c0,21.36-17.34,38.71-38.71,38.71h0c-21.36,0-38.71-17.34-38.71-38.71v-38.71h0Z"/>
      <path class="cls-2" d="M1001.34,950.01h77.41v38.71c0,21.36-17.34,38.71-38.71,38.71h0c-21.36,0-38.71-17.34-38.71-38.71v-38.71h0Z"/>
    </g>
  </g>
</svg>