<?xml version="1.0" encoding="UTF-8"?>
<svg id="Layer_2" xmlns="http://www.w3.org/2000/svg" viewBox="0 0 2535.4 2817.64">
  <defs>
    <style>
      .cls-1 {
        fill: none;
        stroke: #1a1a1a;
        stroke-miterlimit: 10;
        stroke-width: 60px;
      }

      .cls-2 {
        fill: #d9baf4;
      }
    </style>
  </defs>
  <g id="Layer_1-2" data-name="Layer_1">
    <g>
      <path class="cls-2" d="M2431.85,1229.8l-247.41-428.52c-138.06-239.13-393.21-386.44-669.33-386.44h-24.83c9.44-7.62,18.81-15.77,28.03-24.45,93.15-87.74,135.86-195.5,95.38-240.7-40.48-45.2-148.8-10.72-241.96,77.02-4.34,4.09-8.58,8.23-12.7,12.4.82-2.67,1.62-5.34,2.4-8.03,34.77-120.72,12.4-224.01-49.96-230.72-62.36-6.7-141.11,85.72-175.88,206.44-25.91,89.94-20.09,170.19,10.35,208.05h-125.65c-276.12,0-531.27,147.31-669.33,386.44l-247.41,428.52c-138.06,239.13-138.06,533.75,0,772.88l247.41,428.52c138.06,239.13,393.21,386.44,669.33,386.44h494.82c276.12,0,531.27-147.31,669.33-386.44l247.41-428.52c138.06-239.13,138.06-533.75,0-772.88ZM1262.41,404.31c-.53,3.58-.9,7.09-1.11,10.52h-11.53c4.23-3.21,8.45-6.72,12.65-10.52Z"/>
      <path class="cls-1" d="M1092.2,870.8c-124.67,85.71-249.33,85.71-374,0"/>
      <path class="cls-1" d="M1754.51,870.45c-124.67,85.71-249.33,85.71-374,0"/>
      <path class="cls-1" d="M1417.24,1118.46c-124.67,85.71-249.33,85.71-374,0"/>
    </g>
  </g>
</svg>