<?xml version="1.0" encoding="UTF-8"?>
<svg id="Layer_2" xmlns="http://www.w3.org/2000/svg" viewBox="0 0 2691.38 2713.59">
  <defs>
    <style>
      .cls-1 {
        fill: #29abe2;
      }

      .cls-2 {
        fill: none;
        stroke: #1a1a1a;
        stroke-miterlimit: 10;
        stroke-width: 60px;
      }

      .cls-3 {
        fill: #fff;
      }

      .cls-4 {
        fill: #1a1a1a;
      }
    </style>
  </defs>
  <g id="Layer_1-2" data-name="Layer_1">
    <g>
      <path class="cls-1" d="M2675.06,159.86c-43.23-48.27-158.93-11.44-258.42,82.26-4.64,4.37-9.16,8.79-13.56,13.24.87-2.85,1.74-5.7,2.56-8.58,37.14-128.93,13.25-239.25-53.36-246.42-61.83-6.65-138.73,77.94-179.15,193.24-81.25-35.44-170.79-55.13-264.71-55.13H666.69C300.01,138.47,0,438.49,0,805.17v1241.73c0,366.68,300.01,666.69,666.69,666.69h1241.73c366.68,0,666.69-300.01,666.69-666.69V805.17c0-117.74-30.94-228.61-85.08-324.88,27.72-16.52,56.04-37.82,83.15-63.35,99.49-93.7,145.1-208.8,101.87-257.07Z"/>
      <g>
        <circle class="cls-3" cx="784.99" cy="770.9" r="181.35"/>
        <circle class="cls-4" cx="784.99" cy="770.9" r="137.28"/>
        <ellipse class="cls-3" cx="727.33" cy="728.05" rx="77.61" ry="68" transform="translate(-145.7 1272.9) rotate(-77)"/>
      </g>
      <g>
        <circle class="cls-3" cx="1375.99" cy="770.9" r="181.35"/>
        <circle class="cls-4" cx="1375.99" cy="770.9" r="137.28"/>
        <ellipse class="cls-3" cx="1318.33" cy="728.05" rx="77.61" ry="68" transform="translate(312.31 1848.75) rotate(-77)"/>
      </g>
      <path class="cls-2" d="M809.87,479.2c-65.11,136.56-173.07,198.89-323.89,187"/>
      <path class="cls-2" d="M883.99,1105.68c124.67-85.71,249.33-85.71,374,0"/>
      <path class="cls-2" d="M1724.37,655.96c-149.93,20.23-261.18-36.02-333.76-168.77"/>
    </g>
  </g>
</svg>